<svg id="Capa_1" enable-background="new 0 0 512 512" height="512" viewBox="0 0 512 512" width="512" xmlns="http://www.w3.org/2000/svg"><path d="m209.328 335.645c3.375 13.786 15.829 24.048 30.64 24.048 17.396 0 31.548-14.152 31.548-31.548s-14.152-31.548-31.548-31.548c-14.812 0-27.265 10.262-30.64 24.048h-9.956v-17.973c13.786-3.375 24.048-15.829 24.048-30.64 0-17.396-14.152-31.548-31.548-31.548s-31.548 14.152-31.548 31.548c0 14.812 10.262 27.265 24.048 30.64v17.973h-9.956c-3.375-13.786-15.829-24.048-30.64-24.048-17.396 0-31.549 14.152-31.549 31.548s14.153 31.548 31.549 31.548c14.812 0 27.265-10.262 30.64-24.048h9.956v14.471l-22.979 38.3c-1.39 2.317-1.427 5.203-.095 7.554 1.331 2.351 3.824 3.805 6.526 3.805h48.097c2.702 0 5.195-1.454 6.526-3.805 1.332-2.352 1.295-5.237-.095-7.554l-22.979-38.3v-14.471zm30.64-24.048c9.125 0 16.548 7.423 16.548 16.548s-7.423 16.548-16.548 16.548-16.548-7.423-16.548-16.548 7.423-16.548 16.548-16.548zm-64.645-39.565c0-9.125 7.423-16.548 16.548-16.548s16.548 7.423 16.548 16.548-7.423 16.548-16.548 16.548-16.548-7.423-16.548-16.548zm-31.549 72.661c-9.125 0-16.549-7.423-16.549-16.548s7.424-16.548 16.549-16.548 16.548 7.423 16.548 16.548-7.423 16.548-16.548 16.548zm37.295 40.081 10.802-18.003 10.802 18.003z"/><path d="m320.129 0c-42.391 0-82.573 13.547-116.202 39.177-32.042 24.42-55.962 58.907-67.53 97.269-78.834 23.854-136.397 97.167-136.397 183.683 0 105.798 86.073 191.871 191.871 191.871 86.515 0 159.828-57.562 183.682-136.395 38.201-11.524 72.542-35.269 96.952-67.117 25.838-33.712 39.495-74.037 39.495-116.617 0-105.798-86.073-191.871-191.871-191.871zm131.554 73.781c16.231 18.064 28.801 39.475 36.541 63.059-12.486-4.482-23.036-13.193-29.82-24.943-6.747-11.687-9.028-25.115-6.721-38.116zm-131.554-58.781c12.484 0 24.667 1.308 36.427 3.78-10.115 8.528-22.906 13.284-36.427 13.284-13.554 0-26.359-4.771-36.479-13.326 11.869-2.474 24.071-3.738 36.479-3.738zm-131.698 58.874c2.279 12.972-.006 26.364-6.738 38.024-4.146 7.183-10.037 13.524-16.756 18.26-3.806.537-7.58 1.176-11.312 1.934 7.706-21.383 19.615-41.229 34.806-58.218zm3.44 69.384c12.484 0 24.667 1.308 36.426 3.78-10.115 8.528-22.906 13.284-36.426 13.284-13.531 0-26.317-4.755-36.429-13.284 11.761-2.471 23.944-3.78 36.429-3.78zm-131.688 58.933c2.262 12.954-.027 26.323-6.749 37.966-6.751 11.693-17.23 20.376-29.637 24.877 7.721-23.493 20.235-44.828 36.386-62.843zm0 235.876c-16.151-18.015-28.665-39.35-36.385-62.843 12.406 4.502 22.886 13.185 29.637 24.877 6.721 11.643 9.01 25.013 6.748 37.966zm131.688 58.933c-12.529 0-24.756-1.319-36.555-3.808 10.11-8.51 22.888-13.256 36.394-13.256 13.546 0 26.345 4.765 36.462 13.312-11.721 2.454-23.862 3.752-36.301 3.752zm131.554-58.781c-2.306-13.001-.026-26.429 6.722-38.116 6.784-11.75 17.333-20.46 29.819-24.943-7.74 23.583-20.31 44.995-36.541 63.059zm41.158-79.926c-20.008 4.153-37.134 16.482-47.426 34.309-10.255 17.761-12.393 38.7-6.058 58.055-18.755 17.146-41.205 30.312-66 38.153-13.598-15.224-32.822-23.875-53.389-23.875-20.514 0-39.723 8.622-53.318 23.793-24.751-7.869-47.157-21.044-65.874-38.189 6.288-19.323 4.14-40.213-6.093-57.938-10.263-17.776-27.323-30.081-47.256-34.269-2.722-12.308-4.169-25.089-4.169-38.203s1.447-25.895 4.168-38.203c19.934-4.188 36.993-16.493 47.257-34.27 10.234-17.725 12.381-38.615 6.093-57.938 18.75-17.174 41.2-30.366 66.002-38.23 13.597 15.199 32.805 23.834 53.352 23.834 20.532 0 39.756-8.637 53.354-23.834 24.745 7.846 47.15 20.995 65.873 38.112-6.335 19.355-4.196 40.294 6.058 58.056 10.293 17.827 27.419 30.156 47.426 34.309 2.715 12.296 4.159 25.063 4.159 38.164 0 13.1-1.444 25.868-4.159 38.164zm-7.129-134.997c-16.653-28.367-40.382-52.096-68.749-68.749l31.424-31.425 68.75 68.75zm2.512 41.803c-12.486-4.482-23.035-13.193-29.819-24.943-6.748-11.688-9.028-25.116-6.722-38.117 16.231 18.064 28.801 39.476 36.541 63.06zm100.634 34.264c-2.825 3.686-5.797 7.253-8.899 10.697-2.336-13.032-.061-26.499 6.704-38.216 6.802-11.782 17.391-20.508 29.921-24.979-6.123 18.757-15.421 36.444-27.726 52.498zm-15.186-35.019c-10.263 17.777-12.396 38.738-6.041 58.108-17.26 15.727-37.556 28.02-59.464 35.917 2.51-12.361 3.832-25.149 3.832-38.24 0-5.744-.269-11.426-.766-17.043 40.081-22.686 64.895-65.082 64.895-111.215 0-70.438-57.305-127.742-127.742-127.742-34.121 0-66.2 13.288-90.327 37.415-2.929 2.929-2.929 7.678 0 10.606 2.929 2.929 7.678 2.929 10.606 0 21.294-21.294 49.606-33.021 79.721-33.021 62.166 0 112.742 50.576 112.742 112.742 0 38.661-19.741 74.357-52.02 95.006-3.072-17.51-8.521-34.213-16.01-49.756l39.948-39.947c1.407-1.406 2.197-3.314 2.197-5.303s-.79-3.897-2.197-5.303l-79.356-79.356c-1.406-1.407-3.314-2.197-5.303-2.197s-3.897.79-5.303 2.197l-39.947 39.948c-25.133-12.11-53.292-18.901-83.007-18.901-1.092 0-2.18.023-3.268.042 2.224-2.793 4.263-5.755 6.079-8.902 10.246-17.747 12.388-38.667 6.071-58.01 3.928-3.605 8.016-7.042 12.266-10.28 16.403-12.501 34.5-21.882 53.695-27.945 13.599 15.242 32.835 23.902 53.414 23.902 20.532 0 39.757-8.637 53.354-23.834 24.745 7.846 47.15 20.995 65.873 38.112-6.335 19.355-4.196 40.294 6.058 58.055 10.292 17.827 27.419 30.156 47.427 34.309 2.715 12.296 4.159 25.063 4.159 38.164 0 12.994-1.388 25.757-4.097 38.149-20.035 4.139-37.185 16.477-47.489 34.323z"/><path d="m191.871 192.387c-70.438 0-127.742 57.305-127.742 127.742 0 70.438 57.305 127.742 127.742 127.742s127.742-57.305 127.742-127.742c0-28.129-9.084-54.891-26.27-77.391-2.515-3.291-7.22-3.921-10.513-1.408-3.292 2.515-3.922 7.221-1.408 10.513 15.172 19.862 23.191 43.475 23.191 68.286 0 62.166-50.576 112.742-112.742 112.742s-112.742-50.576-112.742-112.742 50.576-112.742 112.742-112.742c24.811 0 48.424 8.019 68.286 23.19 3.291 2.515 7.998 1.885 10.513-1.407s1.884-7.999-1.407-10.513c-22.501-17.186-49.262-26.27-77.392-26.27z"/></svg>