<?xml version="1.0" encoding="utf-8"?>

<svg version="1.1" id="Capa_1" xmlns="http://www.w3.org/2000/svg" xmlns:xlink="http://www.w3.org/1999/xlink" x="0px" y="0px"
	 viewBox="0 0 512 512" style="enable-background:new 0 0 512 512;" xml:space="preserve">
	<circle style="fill:#198754;" cx="256" cy="256" r="246" />
	<circle style="fill:#FFFFFF;" cx="256" cy="256" r="157" />
	<circle style="fill:#198754;" cx="256" cy="256" r="119" />
	<g>
		<path style="fill:#FFFFFF;" d="M147.392,142.633c28.155-26.98,66.338-43.576,108.399-43.631L255.798,99V14l-17.004-3.392
			C176.835,14.89,121.199,42.111,80.302,83.843l5.041,1.526l58.637,58.637L147.392,142.633z" />
		<path style="fill:#FFFFFF;" d="M367.003,367.028c-15.03,15.027-33.094,27.018-53.193,34.983l-0.003,0.002l-0.004,0.001
			C295.914,409.102,276.412,413,256,413c-0.063,0-0.126-0.002-0.189-0.002L255.798,413v85.728l7.545,3.154
			c64.089-1.879,122.018-28.273,164.755-70.127v-3.631L367.003,367.028z" />
		<path style="fill:#FFFFFF;" d="M367.812,149.437c26.98,28.155,43.576,66.338,43.631,108.399l0.003,0.007h85l3.392-17.004
			c-4.282-61.958-31.503-117.595-73.235-158.491l-1.526,5.041l-58.637,58.637L367.812,149.437z" />
		<path style="fill:#FFFFFF;" d="M143.417,369.048c-15.027-15.03-27.018-33.094-34.983-53.193l-0.002-0.003l-0.001-0.004
			c-7.088-17.89-10.986-37.391-10.986-57.803c0-0.063,0.002-0.126,0.002-0.189l-0.002-0.013H11.717l-3.154,7.545
			c1.879,64.089,28.273,122.018,70.127,164.755h3.631L143.417,369.048z" />
	</g>
	<path d="M437.019,74.981C388.667,26.628,324.38,0,256,0S123.333,26.628,74.981,74.981C26.628,123.333,0,187.62,0,256
		s26.628,132.667,74.981,181.019C123.333,485.372,187.62,512,256,512s132.667-26.628,181.019-74.981
		C485.372,388.667,512,324.38,512,256S485.372,123.333,437.019,74.981z M429.701,415.584l-48.829-48.828
		c24.045-27.079,39.434-61.999,41.797-100.391h69.091C489.266,323.769,466.175,375.916,429.701,415.584z M20.24,266.364h69.091
		c2.361,38.37,17.734,73.272,41.755,100.345l-48.83,48.83C45.807,375.876,22.733,323.747,20.24,266.364z M366.709,131.087
		c-27.206-24.139-62.318-39.547-100.911-41.791V20.219c57.606,2.365,109.948,25.469,149.741,62.038L366.709,131.087z M245.798,89.321
		c-38.456,2.329-73.436,17.728-100.553,41.807L96.416,82.299c39.706-36.508,91.913-59.608,149.382-62.065V89.321z M256,109
		c81.056,0,147,65.944,147,147s-65.944,147-147,147s-147-65.944-147-147S174.944,109,256,109z M145.225,380.855
		c27.12,24.088,62.108,39.494,100.573,41.824v69.086c-57.478-2.458-109.693-25.564-149.401-62.083L145.225,380.855z M265.798,422.705
		c38.602-2.245,73.722-17.659,100.93-41.809l48.829,48.829c-39.795,36.579-92.145,59.69-149.76,62.056v-69.076H265.798z
		M476.613,246.364c-1.722-32.401-10.078-64.62-24.314-93.569c-2.438-4.957-8.433-6.999-13.386-4.561
		c-4.956,2.437-6.998,8.431-4.561,13.386c12.896,26.225,20.52,55.384,22.221,84.744h-33.858
		c-2.212-38.688-17.654-73.886-41.86-101.139l48.828-48.828c36.638,39.838,59.774,92.266,62.104,149.967H476.613z M82.274,96.443
		l48.829,48.829c-24.183,27.246-39.608,62.426-41.819,101.092H20.213C22.542,188.685,45.661,136.275,82.274,96.443z" />
	<path d="M420.437,119.808c-4.524,3.167-5.625,9.402-2.458,13.927l0.01,0.015c1.944,2.777,5.042,4.261,8.191,4.261
		c1.981,0,3.984-0.588,5.731-1.811c4.524-3.167,5.62-9.41,2.453-13.935C431.198,117.742,424.962,116.641,420.437,119.808z" />
	<path d="M179.449,333.621c-3.927-3.884-10.259-3.85-14.142,0.077c-3.884,3.927-3.85,10.258,0.077,14.142l0.226,0.223
		c1.95,1.928,4.491,2.891,7.032,2.891c2.578,0,5.154-0.99,7.11-2.967c3.884-3.927,3.85-10.258-0.077-14.142L179.449,333.621z" />
	<path d="M139.142,310.706c2.341,5.003,8.294,7.161,13.295,4.82c5.002-2.341,7.16-8.293,4.82-13.295
		c-19.212-41.06-10.757-90.357,21.037-122.671c42.156-42.844,111.309-43.403,154.153-1.247
		c42.844,42.157,43.404,111.31,1.248,154.153c-31.795,32.314-80.95,41.564-122.316,23.018c-5.038-2.258-10.956-0.005-13.216,5.034
		c-2.259,5.04-0.005,10.956,5.034,13.216c16.704,7.489,34.591,11.293,52.681,11.293c7.663,0,15.362-0.683,23.022-2.057
		c26.342-4.726,50.219-17.339,69.05-36.477c49.891-50.705,49.229-132.545-1.476-182.437c-50.705-49.891-132.545-49.229-182.437,1.476
		c-18.831,19.138-31.056,43.215-35.355,69.63C124.481,260.98,128.098,287.103,139.142,310.706z" />
	<path d="M230.253,287.821c0-5.523-4.477-10-10-10s-10,4.477-10,10c0,20.215,15.317,37.163,35.747,41.408V335c0,5.523,4.477,10,10,10
		c5.523,0,10-4.477,10-10v-5.771c20.429-4.245,35.747-21.193,35.747-41.408S286.429,250.657,266,246.413v-44.156
		c9.244,3.409,15.747,11.395,15.747,20.68c0,5.523,4.477,10,10,10s10-4.477,10-10c0-20.215-15.317-37.163-35.747-41.408V177
		c0-5.523-4.477-10-10-10s-10,4.477-10,10v4.529c-20.429,4.245-35.747,21.193-35.747,41.408S225.571,260.1,246,264.345v44.156
		C236.756,305.092,230.253,297.106,230.253,287.821z M281.747,287.821c0,9.285-6.502,17.271-15.747,20.68v-41.359
		C275.244,270.55,281.747,278.536,281.747,287.821z M230.253,222.937c0-9.285,6.502-17.271,15.747-20.68v41.359
		C236.756,240.208,230.253,232.222,230.253,222.937z" />
</svg>
